<svg width="39" height="62" viewBox="0 0 39 62" fill="none" xmlns="http://www.w3.org/2000/svg">
<g filter="url(#filter0_d_148_1690)">
<path d="M19.1529 29.6473C19.2056 36.1569 19.2478 42.6669 19.3191 49.1763C19.3338 50.4741 19.4354 51.7734 19.5624 53.0654C19.5856 53.2793 19.6728 53.4811 19.8126 53.6446C19.9524 53.808 20.1383 53.9255 20.3459 53.9816C20.6783 54.0877 21.1498 53.7186 21.2191 53.2779C21.2865 52.8506 21.3905 52.4256 21.4164 51.9959C21.5826 49.2528 21.8179 46.5104 21.8675 43.7647C21.9689 38.1244 21.9943 32.482 22.0007 26.8405C22.0068 21.4878 21.9401 16.1353 21.9276 10.7825C21.9257 9.92329 22.0337 9.06314 22.1104 8.20513C22.1245 8.14822 22.1526 8.09573 22.1922 8.05251C22.2318 8.00929 22.2816 7.97672 22.3371 7.95774C22.4698 7.94231 22.6932 7.98147 22.7407 8.06955C23.635 9.7146 24.5757 11.339 25.3736 13.0315C27.2298 16.9662 29.5061 20.6573 31.79 24.3458C32.1654 24.9519 32.5467 25.587 33.2914 25.8315C33.427 25.8759 33.6592 25.9453 33.7045 25.8888C33.8932 25.6865 34.0289 25.4407 34.0993 25.1732C34.133 24.8882 34.0869 24.5995 33.9661 24.3392C33.5485 23.4175 33.1129 22.5027 32.6447 21.6058C29.2986 15.197 25.9325 8.79866 22.5954 2.38489C21.3371 -0.034371 20.1168 -1.18371 17.3502 1.72012C16.5529 2.55677 15.7564 3.40316 15.0473 4.31293C11.7551 8.53243 8.48304 12.7672 5.23108 17.0173C4.81187 17.6017 4.4388 18.2179 4.11525 18.8603C3.8878 19.2794 4.02287 19.6988 4.29542 20.0607C4.59575 20.4591 5.46898 20.7062 5.85288 20.5687C6.7052 20.2637 7.33055 19.6561 7.89679 19.0032C10.0767 16.4904 12.2409 13.964 14.3894 11.424C15.7934 9.77349 17.1769 8.10539 18.5838 6.45749C18.6534 6.3763 18.8687 6.37203 18.9983 6.40527C19.0544 6.42692 19.1043 6.46186 19.144 6.50705C19.1836 6.55224 19.2117 6.60635 19.2258 6.66477C19.2825 7.52611 19.3542 8.38912 19.3497 9.25118C19.3139 16.0506 19.2691 22.8497 19.2153 29.6487L19.1529 29.6473Z" fill="#DA4167"/>
</g>
<defs>
<filter id="filter0_d_148_1690" x="0" y="0" width="38.1104" height="62" filterUnits="userSpaceOnUse" color-interpolation-filters="sRGB">
<feFlood flood-opacity="0" result="BackgroundImageFix"/>
<feColorMatrix in="SourceAlpha" type="matrix" values="0 0 0 0 0 0 0 0 0 0 0 0 0 0 0 0 0 0 127 0" result="hardAlpha"/>
<feOffset dy="4"/>
<feGaussianBlur stdDeviation="2"/>
<feComposite in2="hardAlpha" operator="out"/>
<feColorMatrix type="matrix" values="0 0 0 0 0 0 0 0 0 0 0 0 0 0 0 0 0 0 0.25 0"/>
<feBlend mode="normal" in2="BackgroundImageFix" result="effect1_dropShadow_148_1690"/>
<feBlend mode="normal" in="SourceGraphic" in2="effect1_dropShadow_148_1690" result="shape"/>
</filter>
</defs>
</svg>
