<svg width="84" height="50" viewBox="0 0 84 50" fill="none" xmlns="http://www.w3.org/2000/svg">
<g filter="url(#filter0_d_108_862)">
<path d="M45.3554 21.1362C54.4356 21.2097 63.5159 21.2687 72.5961 21.368C74.4059 21.3882 76.2184 21.5303 78.0209 21.7075C78.3191 21.7399 78.6006 21.8616 78.8286 22.0565C79.0565 22.2515 79.2203 22.5107 79.2986 22.8003C79.4466 23.264 78.932 23.9216 78.3173 24.0183C77.7212 24.1121 77.1281 24.2575 76.5291 24.2936C72.7031 24.5254 68.8774 24.8535 65.0478 24.9227C57.18 25.0642 49.3098 25.0999 41.4403 25.1089C33.9742 25.1175 26.5078 25.0241 19.0416 25.0069C17.8428 25.0039 16.6433 25.1549 15.4465 25.2619C15.3671 25.2815 15.2939 25.3207 15.2336 25.376C15.1733 25.4312 15.1278 25.5007 15.1014 25.5781C15.0799 25.7629 15.1345 26.0749 15.2574 26.1411C17.5517 27.3883 19.8179 28.7004 22.1771 29.8134C27.6655 32.4028 32.8142 35.578 37.9591 38.7638C38.8046 39.2874 39.6908 39.8193 40.0319 40.8581C40.0939 41.0472 40.1905 41.3711 40.1117 41.4344C39.8295 41.6976 39.4864 41.8868 39.1133 41.9851C38.7158 42.032 38.3132 41.9676 37.9502 41.799C36.6646 41.2168 35.3883 40.6091 34.1375 39.956C25.1978 35.2886 16.2608 30.6159 7.32662 25.9381C3.95204 24.1829 2.34853 22.4811 6.39935 18.622C7.56638 17.5096 8.74699 16.3989 10.016 15.4097C15.9015 10.8175 21.8085 6.25341 27.737 1.71732C28.5521 1.13233 29.4117 0.611893 30.3079 0.16082C30.8924 -0.156437 31.4776 0.0316772 31.9823 0.412186C32.5376 0.831112 32.8824 2.04879 32.691 2.58429C32.2654 3.77318 31.4176 4.64547 30.5072 5.4353C27.0017 8.47607 23.4776 11.495 19.9348 14.492C17.6325 16.4505 15.3061 18.3803 13.0075 20.3427C12.8939 20.4394 12.8882 20.7401 12.9342 20.9209C12.9645 20.9992 13.0132 21.0689 13.0763 21.1242C13.1394 21.1795 13.215 21.2186 13.2965 21.2382C14.498 21.317 15.7015 21.4174 16.904 21.4111C26.3881 21.3609 35.8723 21.2985 45.3564 21.2236L45.3554 21.1362Z" fill="#2A1E5C"/>
</g>
<defs>
<filter id="filter0_d_108_862" x="0" y="0" width="83.3242" height="50" filterUnits="userSpaceOnUse" color-interpolation-filters="sRGB">
<feFlood flood-opacity="0" result="BackgroundImageFix"/>
<feColorMatrix in="SourceAlpha" type="matrix" values="0 0 0 0 0 0 0 0 0 0 0 0 0 0 0 0 0 0 127 0" result="hardAlpha"/>
<feOffset dy="4"/>
<feGaussianBlur stdDeviation="2"/>
<feComposite in2="hardAlpha" operator="out"/>
<feColorMatrix type="matrix" values="0 0 0 0 0 0 0 0 0 0 0 0 0 0 0 0 0 0 0.25 0"/>
<feBlend mode="normal" in2="BackgroundImageFix" result="effect1_dropShadow_108_862"/>
<feBlend mode="normal" in="SourceGraphic" in2="effect1_dropShadow_108_862" result="shape"/>
</filter>
</defs>
</svg>
