<svg width="53" height="50" viewBox="0 0 53 50" fill="none" xmlns="http://www.w3.org/2000/svg">
<g filter="url(#filter0_d_108_845)">
<path d="M24.0688 31.189C23.7219 30.9281 23.3617 30.6848 22.9901 30.4602L22.9102 30.4137C21.9584 29.8599 20.9743 29.287 19.9786 28.7714C19.7227 28.6391 19.4654 28.4925 19.2164 28.3503C18.5339 27.961 17.8284 27.5586 17.0194 27.3654C16.9838 27.3568 16.9465 27.3587 16.9118 27.3708C16.8772 27.3826 16.8468 27.4042 16.8242 27.433L16.4395 27.9186C16.4178 27.9461 16.404 27.9792 16.3998 28.0141C16.3956 28.0489 16.4011 28.0842 16.4157 28.116C16.4422 28.1741 16.4642 28.2332 16.4858 28.2907C16.5306 28.4343 16.6006 28.5689 16.6926 28.688C18.7898 31.1247 21.3584 33.3035 25.0201 35.7527C25.2435 35.8945 25.4773 36.0198 25.7194 36.1272C26.0419 36.2885 26.3966 36.3758 26.7576 36.3827C27.2423 36.3768 27.7085 36.1958 28.0694 35.8737C28.1467 35.8088 28.2254 35.7453 28.3042 35.6819C28.474 35.5457 28.6494 35.4045 28.8107 35.2474C29.2554 34.8148 29.7022 34.384 30.1511 33.9551C31.3408 32.8133 32.5709 31.6323 33.7217 30.413C34.4346 29.6239 35.0973 28.7911 35.7059 27.9197C35.9092 27.641 36.1122 27.362 36.3188 27.0872L36.3418 27.0567C36.461 26.9009 36.74 26.5363 36.3287 26.1102C36.2949 26.0753 36.249 26.0544 36.2003 26.0518C35.504 26.0175 35.0402 26.4235 34.593 26.8188C34.4256 26.9742 34.2476 27.1176 34.06 27.2479C33.359 27.7296 32.69 28.2557 32.0573 28.8233L31.9418 28.9225C31.6183 29.2 31.3061 29.4975 31.0041 29.785C30.7156 30.0599 30.417 30.3442 30.1124 30.6075C29.9027 30.7885 29.7056 30.9894 29.5152 31.1835C29.1595 31.5797 28.7502 31.9246 28.299 32.2082C28.2963 32.1877 28.2939 32.168 28.2915 32.1482C28.2663 31.9878 28.2534 31.8259 28.2529 31.6637C28.2825 30.6218 28.3148 29.58 28.3499 28.538C28.4038 26.874 28.4596 25.1533 28.4964 23.4597C28.508 22.9303 28.5199 22.4004 28.5324 21.8706C28.6422 17.1317 28.7554 12.2332 28.3251 7.41802C28.1707 5.6897 27.9089 3.94566 27.6558 2.25841L27.5496 1.54825C27.4851 1.27951 27.3666 1.02661 27.201 0.804891C27.0999 0.642466 26.9853 0.458316 26.8571 0.223414C26.8397 0.191785 26.8139 0.165706 26.7824 0.148096C26.7509 0.130487 26.715 0.121951 26.6788 0.123777C26.6428 0.125604 26.6079 0.137559 26.5784 0.15826C26.5487 0.17896 26.5256 0.207628 26.5118 0.240836C26.0749 1.27708 26.0607 2.17025 26.0482 2.95803C26.0439 3.23326 26.0398 3.49353 26.0193 3.75184C25.984 4.19638 25.9411 4.64035 25.8981 5.08395C25.8438 5.64389 25.7879 6.22297 25.7488 6.79499C25.6929 7.61882 25.6578 8.45709 25.6242 9.26754C25.6134 9.52474 25.6023 9.78184 25.5913 10.039L25.5794 10.3089C25.5363 11.2834 25.4919 12.2911 25.4592 13.2833C25.4291 14.2021 25.406 15.1731 25.387 16.3393C25.3747 17.0826 25.3683 17.8271 25.362 18.5714L25.3526 19.585C25.3493 19.9221 25.3452 20.2592 25.3405 20.5963C25.331 21.3287 25.3218 22.0862 25.3218 22.8318C25.3228 23.7909 25.3287 24.9268 25.3642 26.0814C25.3788 26.5594 25.4069 27.0435 25.4344 27.5124C25.4654 28.0427 25.4973 28.5902 25.509 29.1292C25.5163 29.4538 25.543 29.7848 25.5687 30.1047C25.6469 30.7891 25.6511 31.4801 25.5809 32.1654C25.0514 31.8807 24.5458 31.5542 24.0688 31.189Z" fill="#DB4467"/>
<path d="M48.1328 23.8355C48.0042 23.7645 47.8618 23.722 47.7151 23.7108C47.5684 23.6999 47.4212 23.7207 47.2833 23.7716C47.2564 23.779 47.2314 23.7922 47.2101 23.8101C47.1888 23.8281 47.1718 23.8506 47.1601 23.8758C46.6618 24.9537 46.5231 30.7737 46.422 35.0233C46.3824 36.6834 46.3505 38.0235 46.3064 38.6717C46.0728 38.6938 45.8526 38.7173 45.6422 38.7396C45.1197 38.7953 44.6682 38.8429 44.214 38.8537C42.3971 38.897 40.249 38.9408 38.0904 38.9408H38.0585C36.6349 38.9408 35.2111 38.9429 33.7871 38.9466C29.2974 38.9546 24.6546 38.9639 20.0906 38.8815C17.4009 38.8329 14.6662 38.6606 12.0215 38.4937C10.9093 38.4235 9.75935 38.3512 8.62763 38.2895C8.41829 38.2731 8.21005 38.245 8.0039 38.2053C7.92924 38.1926 7.85275 38.1796 7.77231 38.1668C7.75756 38.0683 7.74187 37.9713 7.72638 37.875C7.675 37.5905 7.63894 37.3032 7.61832 37.0148C7.57166 36.1214 7.53305 35.2279 7.49423 34.334C7.42667 32.7767 7.35687 31.1664 7.24452 29.5843C7.12508 27.8971 6.95487 25.0637 6.86435 23.5257C6.84883 23.2358 6.72352 22.9623 6.51366 22.7606C6.30381 22.559 6.02499 22.4439 5.73336 22.4387C5.43395 22.4324 5.14362 22.5411 4.92267 22.7424C4.70171 22.9439 4.56709 23.2221 4.54676 23.5196C4.36256 26.3839 3.95589 33.4777 4.15708 37.4775L4.16997 37.7526C4.17667 38.3699 4.24746 38.9852 4.38123 39.5883C4.65838 40.6556 5.29946 41.1341 6.52432 41.1889C7.49647 41.2326 8.46844 41.2841 9.44022 41.3356C10.9892 41.4175 12.5922 41.5028 14.1703 41.5528C17.6306 41.6643 20.7638 41.7277 23.7487 41.7493C25.0792 41.7589 26.4095 41.7712 27.74 41.7862C30.1251 41.811 32.5444 41.8362 34.9765 41.8362C38.2539 41.8362 41.5545 41.7905 44.8235 41.6374C45.5325 41.6175 46.2394 41.5517 46.9399 41.4404C48.0552 41.2421 48.6817 40.5571 48.7513 39.4593C48.7784 39.031 48.8134 38.5684 48.8491 38.101C48.8972 37.4669 48.9473 36.8115 48.9782 36.2121C48.9558 32.0582 48.5389 24.9517 48.4587 24.3942C48.4484 24.283 48.4141 24.1756 48.3577 24.0792C48.3013 23.9827 48.2246 23.8994 48.1328 23.8355Z" fill="#DB4467"/>
</g>
<defs>
<filter id="filter0_d_108_845" x="0" y="0" width="53.1641" height="50" filterUnits="userSpaceOnUse" color-interpolation-filters="sRGB">
<feFlood flood-opacity="0" result="BackgroundImageFix"/>
<feColorMatrix in="SourceAlpha" type="matrix" values="0 0 0 0 0 0 0 0 0 0 0 0 0 0 0 0 0 0 127 0" result="hardAlpha"/>
<feOffset dy="4"/>
<feGaussianBlur stdDeviation="2"/>
<feComposite in2="hardAlpha" operator="out"/>
<feColorMatrix type="matrix" values="0 0 0 0 0 0 0 0 0 0 0 0 0 0 0 0 0 0 0.25 0"/>
<feBlend mode="normal" in2="BackgroundImageFix" result="effect1_dropShadow_108_845"/>
<feBlend mode="normal" in="SourceGraphic" in2="effect1_dropShadow_108_845" result="shape"/>
</filter>
</defs>
</svg>
