<svg width="130" height="91" viewBox="0 0 130 91" fill="none" xmlns="http://www.w3.org/2000/svg">
<path d="M34.7641 82.1717C36.3692 80.6451 37.251 79.8729 38.0582 79.0289C63.937 51.9735 92.2787 27.6159 120.788 3.44302C121.865 2.53006 122.969 1.36541 124.244 1.03904C125.781 0.645135 128.289 0.386291 128.976 1.22175C129.899 2.3466 130.063 4.79181 129.5 6.27004C128.83 8.02841 127.198 9.53437 125.717 10.8512C116.881 18.7081 107.797 26.2947 99.1156 34.3151C80.9692 51.0855 62.9382 67.9805 45.023 85.0002C37.1728 92.4425 34.1516 92.7439 26.9282 84.7918C22.1732 79.555 7.82294 61.9059 3.4282 56.3457C2.80759 55.4813 2.25477 54.5701 1.77474 53.6203C0.77997 51.8605 0.135478 49.9229 2.10512 48.5585C4.3 47.0397 5.85828 48.6246 7.15858 50.2749C8.47523 51.9458 9.59789 53.7817 11.0076 55.3651C15.3839 60.2812 30.0375 76.989 34.7641 82.1717Z" fill="black"/>
</svg>
